#!OML:ASF E:\emotionWalksFemale\Project 1\Capture day 1\Session 1\Female1.ASF
:FULLY-SPECIFIED
:DEGREES
1585
root 10.3252 15.2267 41.2125 361.769 -150.034 -358.308
lowerback 6.32069 -2.46185 -0.424042
upperback -3.86184 -3.35842 0.456898
thorax -7.54429 -1.63231 1.14668
lowerneck 6.32185 -6.38977 -9.06293
upperneck 2.34539 -9.29983 6.67767
head 0.44837 -4.82207 3.86612
rclavicle 2.52643e-014 4.77083e-015
rhumerus -61.4033 13.8284 -81.0546
rradius 25.5982
rwrist 38.1688
rhand -5.12145 -56.8028
rfingers 7.12502
rthumb 20.6767 994.279
lclavicle 2.52643e-014 4.77083e-015
lhumerus -41.6129 -2.94744 79.5814
lradius 29.8533
lwrist -43.2876
lhand -4.70791 -29.6291
lfingers 7.12502
lthumb 21.074 -0.754289
rfemur -3.84974 18.4894 30.1429
rtibia 21.4831
rfoot -25.3457 -33.9232
rtoes 11.9259
lfemur -21.8054 7.49598 -20.4757
ltibia 58.4792
lfoot -14.1363 2.84415
ltoes -29.7655
1586
root 10.3313 15.2223 41.2329 361.517 -150.327 -358.249
lowerback 6.11375 -2.6357 -1.0104
upperback -3.42037 -3.59815 0.949162
thorax -6.88092 -1.71406 1.98838
lowerneck 5.97159 -6.14134 -9.02758
upperneck 2.31989 -8.91396 6.18237
head 0.440457 -4.61441 3.67616
rclavicle -1.76716e-014 -5.36719e-015
rhumerus -61.2595 13.752 -79.8926
rradius 26.0681
rwrist 36.9232
rhand -4.42596 -57.1492
rfingers 7.12502
rthumb 21.3449 994.006
lclavicle -1.76716e-014 -5.36719e-015
lhumerus -40.8049 -1.8903 80.3555
lradius 30.5593
lwrist -41.6648
lhand -6.2278 -30.5996
lfingers 7.12502
lthumb 19.6134 -1.56895
rfemur -3.70816 18.9634 30.2966
rtibia 21.5768
rfoot -25.2422 -34.1448
rtoes 12.4771
lfemur -22.0913 6.61952 -20.2484
ltibia 58.5611
lfoot -14.4534 2.10088
ltoes -23.1838
1587
root 10.3327 15.2238 41.2531 361.48 -150.757 -358.322
lowerback 6.38337 -2.80665 -1.36181
upperback -3.40895 -3.84466 1.22282
thorax -6.97386 -1.81018 2.51446
lowerneck 5.69621 -5.78811 -9.1022
upperneck 2.66817 -8.43595 5.91125
head 0.551078 -4.37783 3.58164
rclavicle -4.22029e-014 3.15571e-015
rhumerus -61.4734 13.5311 -78.8336
rradius 26.284
rwrist 35.922
rhand -4.27172 -56.8151
rfingers 7.12502
rthumb 21.493 994.357
lclavicle -4.22029e-014 3.15571e-015
lhumerus -40.6241 -1.21594 80.9936
lradius 31.3032
lwrist -39.974
lhand -8.3813 -31.7511
lfingers 7.12502
lthumb 17.5419 -2.52253
rfemur -3.76125 19.1411 30.2043
rtibia 21.676
rfoot -24.7673 -34.0821
rtoes 11.545
lfemur -22.4223 5.81781 -20.1912
ltibia 58.4114
lfoot -15.2153 3.1655
ltoes -26.8654
1588
root 10.3264 15.2251 41.2729 361.49 -151.366 -358.417
lowerback 7.13693 -2.99799 -0.8463
upperback -3.7622 -4.08703 0.865919
thorax -7.83839 -1.9472 1.94832
lowerneck 5.52925 -5.43581 -8.441
upperneck 3.35792 -7.96201 5.72699
head 0.725054 -4.15155 3.37847
rclavicle -7.22458e-015 -4.96962e-015
rhumerus -62.1137 12.7127 -78.5042
rradius 26.0507
rwrist 34.8113
rhand -5.34259 -55.9214
rfingers 7.12502
rthumb 20.4642 995.137
lclavicle -7.22458e-015 -4.96962e-015
lhumerus -40.9027 -1.07099 80.7837
lradius 31.8542
lwrist -38.5976
lhand -10.8668 -32.8227
lfingers 7.12502
lthumb 15.1488 -3.39712
rfemur -3.89129 19.088 29.9753
rtibia 21.7385
rfoot -24.3687 -33.6393
rtoes 10.7979
lfemur -22.6807 5.11372 -20.1963
ltibia 58.0505
lfoot -15.5864 4.56553
ltoes -32.5085
1589
root 10.3177 15.2227 41.2887 361.401 -152.007 -358.42
lowerback 7.33792 -3.11364 -0.807892
upperback -3.73568 -4.23853 0.844946
thorax -7.92597 -2.02123 1.93747
lowerneck 5.27747 -5.23027 -7.81236
upperneck 3.64674 -7.64416 5.34763
head 0.79242 -3.98781 3.1199
rclavicle -2.21334e-014 -1.40143e-014
rhumerus -62.2608 12.2181 -77.9809
rradius 26.0986
rwrist 33.3107
rhand -5.96381 -55.4969
rfingers 7.12502
rthumb 19.8671 995.499
lclavicle -2.21334e-014 -1.40143e-014
lhumerus -40.5665 -0.501649 80.8541
lradius 32.3929
lwrist -37.1869
lhand -12.2943 -33.6765
lfingers 7.12502
lthumb 13.7734 -4.15243
rfemur -3.9202 19.1699 29.8722
rtibia 21.7553
rfoot -24.1545 -33.2048
rtoes 10.8095
lfemur -22.7982 4.31926 -20.0658
ltibia 57.5037
lfoot -16.1003 5.49439
ltoes -33.0085
1590
root 10.3102 15.2256 41.3041 361.244 -152.692 -358.271
lowerback 7.58753 -3.21717 -0.698338
upperback -3.74437 -4.36215 0.903632
thorax -8.08003 -2.08231 1.97286
lowerneck 5.09089 -5.0073 -7.43528
upperneck 3.91699 -7.32746 5.14668
head 0.863878 -3.82908 2.97342
rclavicle -4.17758e-015 -8.94531e-016
rhumerus -62.3964 11.7877 -77.3981
rradius 26.292
rwrist 32.0867
rhand -6.1023 -55.5393
rfingers 7.12502
rthumb 19.734 995.442
lclavicle -4.17758e-015 -8.94531e-016
lhumerus -40.5031 -0.460021 81.2008
lradius 33.0661
lwrist -36.0848
lhand -14.9995 -34.2015
lfingers 7.12502
lthumb 11.1653 -4.51853
rfemur -3.92112 19.4375 29.962
rtibia 21.7896
rfoot -23.7311 -32.834
rtoes 10.2516
lfemur -22.8582 3.42347 -19.711
ltibia 56.7577
lfoot -16.8281 6.10461
ltoes -30.3542
1591
root 10.3002 15.2319 41.3172 361.203 -153.436 -358.205
lowerback 7.44985 -3.34315 -0.696872
upperback -3.60999 -4.52043 0.995334
thorax -7.84269 -2.16113 2.07377
lowerneck 4.87223 -4.71339 -7.27538
upperneck 4.04065 -6.9139 5.03698
head 0.901581 -3.61962 2.90081
rclavicle 4.1108e-014 -3.32964e-015
rhumerus -62.1091 11.3453 -76.6799
rradius 26.4418
rwrist 30.9459
rhand -6.08372 -55.6817
rfingers 7.12502
rthumb 19.7519 995.302
lclavicle 4.1108e-014 -3.32964e-015
lhumerus -40.1156 -0.0981539 81.4384
lradius 33.5714
lwrist -34.9999
lhand -15.9453 -35.4142
lfingers 7.12502
lthumb 10.2529 -5.68406
rfemur -3.96397 19.7936 29.9553
rtibia 21.8131
rfoot -23.4148 -32.4423
rtoes 10.3252
lfemur -22.9191 2.52557 -19.4133
ltibia 55.828
lfoot -17.6332 6.65538
ltoes -28.2746
1592
root 10.2833 15.236 41.3172 361.346 -154.26 -358.522
lowerback 7.04659 -3.44083 -1.01112
upperback -3.45361 -4.67751 1.00524
thorax -7.40988 -2.23045 2.24148
lowerneck 4.67519 -4.44653 -7.17862
upperneck 4.24944 -6.54386 4.81186
head 0.964792 -3.43567 2.80069
rclavicle 1.09961e-014 6.70898e-016
rhumerus -61.8403 11.0588 -76.1029
rradius 26.6846
rwrist 29.5445
rhand -6.07101 -55.5861
rfingers 7.12502
rthumb 19.7641 995.399
lclavicle 1.09961e-014 6.70898e-016
lhumerus -39.6708 0.494743 81.6499
lradius 33.8158
lwrist -34.5189
lhand -16.9007 -36.42
lfingers 7.12502
lthumb 9.33117 -6.64648
rfemur -3.96091 19.8589 29.5477
rtibia 21.802
rfoot -23.2325 -31.8817
rtoes 10.5812
lfemur -22.8025 1.76311 -19.5077
ltibia 54.6767
lfoot -18.534 7.14418
ltoes -27.2622
1593
root 10.2692 15.2409 41.3254 361.441 -155.284 -358.571
lowerback 6.92258 -3.46458 -1.06193
upperback -3.44692 -4.71321 1.02388
thorax -7.32395 -2.24738 2.28404
lowerneck 4.39937 -4.19084 -6.78766
upperneck 4.43492 -6.16535 4.48147
head 1.02017 -3.24156 2.61035
rclavicle -9.24659e-015 -3.24267e-015
rhumerus -61.7142 10.8315 -75.7442
rradius 26.8841
rwrist 28.1426
rhand -6.4142 -55.3487
rfingers 7.12502
rthumb 19.4341 995.603
lclavicle -9.24659e-015 -3.24267e-015
lhumerus -39.476 0.613532 81.9444
lradius 34.2221
lwrist -33.8863
lhand -18.6287 -36.6238
lfingers 7.12502
lthumb 7.6635 -6.78266
rfemur -4.17802 19.8833 29.3369
rtibia 21.9037
rfoot -22.7142 -31.3321
rtoes 8.95007
lfemur -22.7559 1.14253 -19.3236
ltibia 53.3597
lfoot -19.1945 7.68623
ltoes -28.2482
1594
root 10.2573 15.2471 41.3345 361.359 -156.138 -358.463
lowerback 7.11648 -3.54258 -0.90899
upperback -3.51511 -4.80655 1.00989
thorax -7.51909 -2.29714 2.2149
lowerneck 4.39469 -3.92855 -6.37586
upperneck 4.42033 -5.79401 4.28467
head 0.972043 -3.05138 2.47151
rclavicle 2.045e-014 5.41688e-015
rhumerus -61.7535 10.5558 -75.5108
rradius 27.206
rwrist 26.7576
rhand -6.67867 -55.184
rfingers 7.12502
rthumb 19.1798 995.742
lclavicle 2.045e-014 5.41688e-015
lhumerus -39.4509 0.344799 82.2361
lradius 34.9016
lwrist -32.4703
lhand -18.8098 -36.1746
lfingers 7.12502
lthumb 7.48876 -6.32718
rfemur -4.26934 20.0192 29.351
rtibia 22.0315
rfoot -22.3439 -30.9641
rtoes 7.60849
lfemur -22.595 0.143419 -18.9146
ltibia 51.9379
lfoot -19.7323 8.00591
ltoes -28.7098
